<svg id="visual" viewBox="0 0 900 600" width="900" height="600" xmlns="http://www.w3.org/2000/svg" xmlns:xlink="http://www.w3.org/1999/xlink" version="1.1"><path d="M0 371L21.5 372.3C43 373.7 86 376.3 128.8 370.3C171.7 364.3 214.3 349.7 257.2 344C300 338.3 343 341.7 385.8 350.8C428.7 360 471.3 375 514.2 373.2C557 371.3 600 352.7 642.8 351C685.7 349.3 728.3 364.7 771.2 372.2C814 379.7 857 379.3 878.5 379.2L900 379L900 601L878.5 601C857 601 814 601 771.2 601C728.3 601 685.7 601 642.8 601C600 601 557 601 514.2 601C471.3 601 428.7 601 385.8 601C343 601 300 601 257.2 601C214.3 601 171.7 601 128.8 601C86 601 43 601 21.5 601L0 601Z" fill="#000000"></path><path d="M0 376L21.5 378.2C43 380.3 86 384.7 128.8 389.2C171.7 393.7 214.3 398.3 257.2 399.8C300 401.3 343 399.7 385.8 395.5C428.7 391.3 471.3 384.7 514.2 384.3C557 384 600 390 642.8 386.8C685.7 383.7 728.3 371.3 771.2 368.5C814 365.7 857 372.3 878.5 375.7L900 379L900 601L878.5 601C857 601 814 601 771.2 601C728.3 601 685.7 601 642.8 601C600 601 557 601 514.2 601C471.3 601 428.7 601 385.8 601C343 601 300 601 257.2 601C214.3 601 171.7 601 128.8 601C86 601 43 601 21.5 601L0 601Z" fill="#090909"></path><path d="M0 409L21.5 404.8C43 400.7 86 392.3 128.8 390.8C171.7 389.3 214.3 394.7 257.2 395.5C300 396.3 343 392.7 385.8 388.2C428.7 383.7 471.3 378.3 514.2 381.2C557 384 600 395 642.8 402.7C685.7 410.3 728.3 414.7 771.2 418C814 421.3 857 423.7 878.5 424.8L900 426L900 601L878.5 601C857 601 814 601 771.2 601C728.3 601 685.7 601 642.8 601C600 601 557 601 514.2 601C471.3 601 428.7 601 385.8 601C343 601 300 601 257.2 601C214.3 601 171.7 601 128.8 601C86 601 43 601 21.5 601L0 601Z" fill="#111111"></path><path d="M0 420L21.5 417.3C43 414.7 86 409.3 128.8 407.3C171.7 405.3 214.3 406.7 257.2 406.5C300 406.3 343 404.7 385.8 405.7C428.7 406.7 471.3 410.3 514.2 415.5C557 420.7 600 427.3 642.8 424C685.7 420.7 728.3 407.3 771.2 402.3C814 397.3 857 400.7 878.5 402.3L900 404L900 601L878.5 601C857 601 814 601 771.2 601C728.3 601 685.7 601 642.8 601C600 601 557 601 514.2 601C471.3 601 428.7 601 385.8 601C343 601 300 601 257.2 601C214.3 601 171.7 601 128.8 601C86 601 43 601 21.5 601L0 601Z" fill="#171717"></path><path d="M0 420L21.5 426.3C43 432.7 86 445.3 128.8 448.2C171.7 451 214.3 444 257.2 438.2C300 432.3 343 427.7 385.8 431.3C428.7 435 471.3 447 514.2 447.7C557 448.3 600 437.7 642.8 430.3C685.7 423 728.3 419 771.2 422.8C814 426.7 857 438.3 878.5 444.2L900 450L900 601L878.5 601C857 601 814 601 771.2 601C728.3 601 685.7 601 642.8 601C600 601 557 601 514.2 601C471.3 601 428.7 601 385.8 601C343 601 300 601 257.2 601C214.3 601 171.7 601 128.8 601C86 601 43 601 21.5 601L0 601Z" fill="#1c1c1c"></path><path d="M0 446L21.5 446.2C43 446.3 86 446.7 128.8 449.5C171.7 452.3 214.3 457.7 257.2 457.5C300 457.3 343 451.7 385.8 451.3C428.7 451 471.3 456 514.2 461.5C557 467 600 473 642.8 472.7C685.7 472.3 728.3 465.7 771.2 459.8C814 454 857 449 878.5 446.5L900 444L900 601L878.5 601C857 601 814 601 771.2 601C728.3 601 685.7 601 642.8 601C600 601 557 601 514.2 601C471.3 601 428.7 601 385.8 601C343 601 300 601 257.2 601C214.3 601 171.7 601 128.8 601C86 601 43 601 21.5 601L0 601Z" fill="#212121"></path><path d="M0 475L21.5 478.3C43 481.7 86 488.3 128.8 488.7C171.7 489 214.3 483 257.2 477C300 471 343 465 385.8 466C428.7 467 471.3 475 514.2 477.8C557 480.7 600 478.3 642.8 479.5C685.7 480.7 728.3 485.3 771.2 484.8C814 484.3 857 478.7 878.5 475.8L900 473L900 601L878.5 601C857 601 814 601 771.2 601C728.3 601 685.7 601 642.8 601C600 601 557 601 514.2 601C471.3 601 428.7 601 385.8 601C343 601 300 601 257.2 601C214.3 601 171.7 601 128.8 601C86 601 43 601 21.5 601L0 601Z" fill="#272727"></path><path d="M0 486L21.5 487.3C43 488.7 86 491.3 128.8 491C171.7 490.7 214.3 487.3 257.2 487C300 486.7 343 489.3 385.8 492.8C428.7 496.3 471.3 500.7 514.2 504.3C557 508 600 511 642.8 506.7C685.7 502.3 728.3 490.7 771.2 489.8C814 489 857 499 878.5 504L900 509L900 601L878.5 601C857 601 814 601 771.2 601C728.3 601 685.7 601 642.8 601C600 601 557 601 514.2 601C471.3 601 428.7 601 385.8 601C343 601 300 601 257.2 601C214.3 601 171.7 601 128.8 601C86 601 43 601 21.5 601L0 601Z" fill="#2c2c2c"></path><path d="M0 517L21.5 515.2C43 513.3 86 509.7 128.8 510.8C171.7 512 214.3 518 257.2 522.3C300 526.7 343 529.3 385.8 526.7C428.7 524 471.3 516 514.2 512.8C557 509.7 600 511.3 642.8 515.7C685.7 520 728.3 527 771.2 528.7C814 530.3 857 526.7 878.5 524.8L900 523L900 601L878.5 601C857 601 814 601 771.2 601C728.3 601 685.7 601 642.8 601C600 601 557 601 514.2 601C471.3 601 428.7 601 385.8 601C343 601 300 601 257.2 601C214.3 601 171.7 601 128.8 601C86 601 43 601 21.5 601L0 601Z" fill="#323232"></path><path d="M0 524L21.5 523.8C43 523.7 86 523.3 128.8 526.7C171.7 530 214.3 537 257.2 540.7C300 544.3 343 544.7 385.8 543.3C428.7 542 471.3 539 514.2 539C557 539 600 542 642.8 539.8C685.7 537.7 728.3 530.3 771.2 528.8C814 527.3 857 531.7 878.5 533.8L900 536L900 601L878.5 601C857 601 814 601 771.2 601C728.3 601 685.7 601 642.8 601C600 601 557 601 514.2 601C471.3 601 428.7 601 385.8 601C343 601 300 601 257.2 601C214.3 601 171.7 601 128.8 601C86 601 43 601 21.5 601L0 601Z" fill="#373737"></path><path d="M0 562L21.5 561.5C43 561 86 560 128.8 558.2C171.7 556.3 214.3 553.7 257.2 555.3C300 557 343 563 385.8 564.3C428.7 565.7 471.3 562.3 514.2 559.8C557 557.3 600 555.7 642.8 553.2C685.7 550.7 728.3 547.3 771.2 548C814 548.7 857 553.3 878.5 555.7L900 558L900 601L878.5 601C857 601 814 601 771.2 601C728.3 601 685.7 601 642.8 601C600 601 557 601 514.2 601C471.3 601 428.7 601 385.8 601C343 601 300 601 257.2 601C214.3 601 171.7 601 128.8 601C86 601 43 601 21.5 601L0 601Z" fill="#3d3d3d"></path><path d="M0 574L21.5 573.7C43 573.3 86 572.7 128.8 571.2C171.7 569.7 214.3 567.3 257.2 568C300 568.7 343 572.3 385.8 575C428.7 577.7 471.3 579.3 514.2 579.2C557 579 600 577 642.8 576.7C685.7 576.3 728.3 577.7 771.2 577.2C814 576.7 857 574.3 878.5 573.2L900 572L900 601L878.5 601C857 601 814 601 771.2 601C728.3 601 685.7 601 642.8 601C600 601 557 601 514.2 601C471.3 601 428.7 601 385.8 601C343 601 300 601 257.2 601C214.3 601 171.7 601 128.8 601C86 601 43 601 21.5 601L0 601Z" fill="#434343"></path></svg>