<svg width="123" height="123" viewBox="0 0 123 123" fill="none" xmlns="http://www.w3.org/2000/svg">
<path d="M19.9352 61.4711L40.7032 25.5L82.2391 25.5L103.007 61.4711L82.2391 97.4423L40.7032 97.4423L19.9352 61.4711Z" stroke="white" stroke-width="6"/>
<path d="M44 42C44 39.7909 45.7909 38 48 38H50C52.2091 38 54 39.7909 54 42V79C54 81.2091 52.2091 83 50 83H48C45.7909 83 44 81.2091 44 79V42Z" fill="white"/>
<path d="M68 42C68 39.7909 69.7909 38 72 38H74C76.2091 38 78 39.7909 78 42V79C78 81.2091 76.2091 83 74 83H72C69.7909 83 68 81.2091 68 79V42Z" fill="white"/>
<path d="M61 56L65.3301 58.5V63.5L61 66L56.6699 63.5V58.5L61 56Z" fill="white"/>
</svg>
